<mxfile host="65bd71144e">
    <diagram id="K7EYhn68fAcEZHSfkZHS" name="Page-1">
        <mxGraphModel dx="2143" dy="1710" grid="1" gridSize="10" guides="1" tooltips="1" connect="1" arrows="1" fold="1" page="1" pageScale="1" pageWidth="850" pageHeight="1100" math="0" shadow="0">
            <root>
                <mxCell id="0"/>
                <mxCell id="1" parent="0"/>
                <mxCell id="2" value="" style="shape=image;verticalLabelPosition=bottom;labelBackgroundColor=default;verticalAlign=top;aspect=fixed;imageAspect=0;image=data:image/png,iVBORw0KGgoAAAANSUhEUgAAAdEAAALZCAIAAABnGow8AAAAAXNSR0IArs4c6QAAAARnQU1BAACxjwv8YQUAAAAJcEhZcwAAEnQAABJ0Ad5mH3gAAFm5SURBVHhe7Z0xaOXMer+XC7mfIXBxkXyYm5AsuYG4PIQQzBLutyTFdWmSQFxlL1xwDCnWRSCGcEmRwl28TXBp0sSlO5sLf9jSJI1LFy6SbkuXLv1/R/OTNK+Ojs7oaKTzSvo9xa7mnZE0I40ez9GR5rx7I4QQMhR0LiGEDMcUnPvLX/7yHSFk6vzv//4vrvkxMx3nnp2d/SshZIp8/PiRzjWEd+40zgchZBnRLp1rCDqXkGlD59qCziVk2tC5tqBzCZk2dK4t6FxCpg2daws6dwTcncg5yvnw5RlhRVbm5A6pnOcvH/xaAWWhhlyftbwvX5XqflaVJhagc21B5xonk1xpM2+3lW6tai+Lq2C4vebcGosvr+BYtXNiAzrXFnSuaZz3qipb5cKTk+XCdZIs12/OhUuDPdXsuWHfxAh0ri3oXMPUOVFYErHX3t1yRu0WylhzrpBJNk/UlfbB2l0TK9C5tqBzDVM7rvQ8P5d+y71Xs0KdJ8tCzbkZRXK1cbOgK0fn2oTOtQWda5glhdYSlqqusWTKLJBHmnM9KPOlriqBaOlcu9C5tqBzDRPlXF2osoqXqCIwY3NuTrbJmiylWZUgpqBzbUHnGqYi0FqqZbJ0YT89ktWpdbkldUKtxOqKEBvQubagcw2zwoKBZrMSNeQrVbfQZORqbsmyUFftt3Z1sl3oXFvQuaapGz4GsVoph8HlAplXMS5uzi2pq0WFiCJkS9C5tqBzjVOxoB9ghs5cMmS4zrJVw1BzbgmdO2roXFvQufbJPFhQONaHa5QL6ToFrlRotmJzbgmdO2roXFvQuYRMGzrXFnQuIdOGzrUFnUvItKFzbUHnEjJt6Fxb0LmETBs61xZ0LiHThs61BZ1LyLShc21B5xIybehcW9C5hEwbOtcWdC4h04bOtQWdS8i0oXNtQecSMm3oXFvQuYRMGzrXFnQuIdOGzrUFnUvItKFzbUHnEjJt6Fxb0LmETBs61xZ0LiHThs61BZ1rgdfX16Ojo49kZuzt7cnV50FX6AE61xZ0rgXk+Mvl95XMjMPDw8y3DnSFHqBzbUHnWkCO//v375Egs8FffR6EeoDOtQWdawE6d57QuW2hc0ka6Nx5Que2hc4laaBz5wmd2xY6l6ShH+c+f/nw4cszEhXuTlZmkcGgc9tC55I0NDtX3JldlY6KKRuy7k6CSFDu5M6ln59VPtkKdG5b6FyShgbnZrbMPOkQUZaJ5axSoqFRXbk8ES5LmWJtsg3o3LbQuSQNq51bHY0GzlT+dQQBtZpKuA3ka1U3TgaGzm0LnUvSsNK5oSEr1GQVDl0tU7VWw9bJENC5baFzSRpWOlfkucqKNVm5autc6mIOFV/tZjIEdG5b6FyShpXObRiJ1mQ1ORe4rFKzDQXJANC5baFzSRpWOndpJBo4c2mgWwQqKtXbCFPVrZNhoXPbQueSNKx2bmVgqjzrssqUy8oLapeqTYRbqLiZDA2d2xY6l6ShwblC5lZQUeSqrOoA1pkWBMWqpcjA0LltoXNJGpqduwki47U6FeVylLtV6Ny20LkkDemdu34QS+NuHzq3LXQuSUMfzm0c68YMg0nv0LltoXNJGvpxLrEOndsWOpekgc6dJ3RuW+hckgY6d57QuW2hc0ka6Nx5Que2hc4laaBz5wmd2xY6l6SBzp0ndG5b6NxJcX5+nnV+u1xeXqKuZBLQuW2hc6eDHIGdnZ39/X3poDaRukkNv337hhqT8UPntoXOnQ5HR0dyHB4eHpC2x+3trdRQzhfSZPzQuW2hcyfC/f29HITj42OkreL/MDw+PiJNRg6d2xY6dwq8vr4uFotRfGx/enqSekptkSYjh85tC507BS4vL+UIXFxcIG2bs7Mzqe319TXSZMzQuW2hc5PTNPfK3Un6aVlkbLu7u7u3tyejXYRsI/WU2o6owqQBOrctdO5mBBNo6+kEy+kHg7m48xLPz8/rpidsjx823t7eIj0GZJArdT4/P0eajBY6ty107gY4m5bidPrNpVoYNSyii7sy6SZ9fXx8lLZ//PgR6fHgb0BP4yqaM3RuW+jcDaiMVZ1TvUXLDFWkLJBRWb0TYltp+xgfA/B/LY6OjpAm44TObQuduwlizTptrpBpRblL6Y3xj7uenZ0hPTb8ibu/v0eajBA6ty107qY472YU+lxyqQuoEiDJQLf4Jmq8r3VJzf1zY/wybbzQuW2hc7uSuTez6qrxq4srxyYZ6PpeOPbpC/xTbpyEYbzQuW2hc9tTHabmCg1VqstU1ug+zi1GiEiPFhnh7u/v7+7ujne0PnPo3LbQuRvghralNMthbOBSNbZ15YNxbYJhrn+D9uvXr0iPGX9X+vT0FGkyKujcttC5m+G8WVAIVA1gnWmBNqwqtQGiWtnmlL7x5yQM44XObQudmxRR8VqdinK7jXLHMrVCPH4ShoODA6TJeKBz20LnJmbdILarcf2XTtIFkZ4K/m26m5sbpMlIoHPbQucmp2GsGzMMbkLGtv75sOiHq7IbHEv79HdG4P7qXwmXKVlZmTAj21Tw98JvxJOVW1pjaZUGikff+NzYuKBz20Lnjon2Uytk1qu5oRwEVzgXS3mWWycolvm12KrLzBLFgiNcPQZOwjBG6Ny20LmjYaOpFZxQT070cxKVmEvWO9c71GXm/+fUrZMFAs+6dcLdxsBJGEYHndsWOreJp6enrzlb/8y70dQKmRzv1ICzCEU415vT0VBEA9U2FVkNJ2EYHXRuW+jcJsL+9JOf/ARL2+C3fuu35N/2UyvAgKVX4ULEUaRRqK6oKlBsdQUuV6isE4s/5pyEYSzQuW2hc5sI+1P89q+vr2VFJFIgQ2wx/vfff9/++bDcjrlYc6EG1syzcrRzIdBmLVdw2Rsal5MwjA06ty10bhNGnOs73EaTEhRu9Zos/KqdqwQaCtXluRXy/3OK7YCKZavZLeEkDCOCzm0LnduEBed2G/eVQnVaFODCMl6KNSMrFtg4z1CFqpINt+aQdFC2NdJSTsIwFujcttC5TVhwrn8vdtP7m6ENVy0LLpkTCFeZsxqAxDNC4QpStItzBU7CMBbo3LbQuU1s3blfJze1QjychGEU0LltoXOb2Lpz5/y8KidhGAV0blvo3Ca261z/VdKc38viJAz2oXPbQuc2sUXntp9aYYJI23kQjEPntoXObWKLzuUQzyMHU44DJ2EwC53bFjq3iW05178Cu/mtzOCRgo7PD3TF16TyWENLOAmDZejcttC5TWzLuYeHh7LHTb+yD56d1Y/RDgueLQtmdtgQTsJgGTq3LXRuE1txbtdHU51nS8l1f1S2I7o6G+JPxNdJ/P7bxKBz20LnNjG8c19fX9+/f9/pFSxt2Wk4t3gZD2liBjq3LXRuE8M79+LiQvbVaaqBKTpX4CQMNqFz20LnNjGwc7tNrZAzUefKMdnf39/b2+MkDKagc9tC5zYxsHOPj49lR12njp3i/VyPv9PdfhJh0iN0blvo3CaGdO7Dw4PsJcW3885y8GywuC0SOlfgJAzWoHPbQuc2MaRzUz6F6jwH0uluQ9I610/C0PJH4UiP0LltoXObGMy5V1dXsgt+ao7Bv6HX5sePSY9MwrkyMNj84+DdSbt16dwmhnHuy8sLZxWIR44SD5cdTDk3+IBXvafWkFV+57H2A2JQIN/I8/Nzuy9N6NwmhnGuH7jJWkiTdcixkiMm1yHSZHvYcW7mw0KV4sEysZxVOrIQpitUiDRYLgmilQKykegbaHRuEwM49/HxcWdnR0Zt2Q+6k1jkiMlx43NjW8eMc6uDzcCKyr+OIFCupjbg1kYJt5gtBzFB70+nGqFzmxjAuX5qBbIZnIRh61hxrhaioiarUOQKV9ZurcmyDbuvQuc20bdzZZgmnaknfvGLX/zVX/0VEv3z+fPn3d1dJAaEd3W3ixXnigJXSa8mKxfmkipdwFG3qSbnVpMNDOBcaUVkZWqI+U5wvM7tFa8kJPpHjs/79++RILPBinMbBpo1WSudC1x8yTyNzm3Yf4WND5PsMUBVT+1d1czlgJrqBbn5KlHfCdK5tdC5ZACsOLfqwFCbTlZKOEUgdJXeQI13lNiqBWrKr6CTc4v9Z7ZUKSTCigTHQC2DIFTJlY2ULa2Bzq2FziUDYMa5FW00CMpl5QUDQ6n11eo5qx2VpRstVZLGuboK5e6DBlUSeRn3f7FQbk+VraSWoHNroXPJANhxrpDpBAR2cqzKqjoqpyxTOCpf9ujtr3FUSCrnhs4sFlfXIygNdFmdWi6tmI1z5TisPK/LN76n6Nx2R4AMgCnnbkJTn4pGhNVgKE1S56LquSLz/0NczLFUwSbnVpMVJuRcd1RLdJvVQciPo5Adypob35adG1S/emYbssoWBoXyMq1fByJJGL1z1+klAtnAktBW0+c4NwhVcVm6mbrdlaPQsCVhYs4tGupaXaTCIxIevXBZygRHyaxzVbsampxlld2gOALV5geN1keADMAEnJt1o7KjtaT1uqmcW70OXFb+PyiumQydqhau5FYLa6bq3PCoqiOgEuGBUxlWnVs9mWUjq81XgXI1tYHGTkb6ZxLOHZQ0znWJMlVcBvoCCK6tyuoZQbYqKVSuqyrTdW7Rcn0kQ9SxUQmjzm04mTVZRcNXHYFKvGHrpBfo3LZ0cm6JuhzKfl+9UIKVcGG4smrZoy+bVdcbmLhzpel1JsmPloqHR8qoc6tNDKjJyhtUdwSKw4NURngEyACE1wjmwuiBT58+yfZvbm6Q7g20qk96/NPkkIui+xUgl9GKi9QzcedKut44GVo7YUGjzl3TlkpWg3NdaHlLDZsnfRBeIxMAreqT3vfRedyxzrhTdq4TiDt6FZHoYxqmwmWjzq3UvmykUGl+EFhS6VJRUN066Rk6ty0D7EMul42vgqh1p+pcl0BKmySwlF5Fmcmqc3X1dZNdlj4AeUF1BNQ6CnUEyADQuW0ZYh99MzHnlgSaVcoRgoKBYlQps84VMreCiiJXZZVtC0t4lI3VcSJ9E14jvsv1wQ8//CDb//z5M9K9gVb1CZ3bxODOXY2IZq1MRDiBpQbrQ55Wzt2E9keADEB4jSDUA9KTZft9XOPDQ+c2Yci564dwVd9MzbntjwAZADq3Lb0cppeXFzx5MQj+pxY6PkeCqmtMObdxpFeTNT3ntj0CZADo3Lb0cphEYf4cjAhUXWPMue2YonOJOejcttC5U0bsj1PSP3I9/PjHP8aOySxBV+gBOncNHOdaGOcOzPDjXDnIQ/5RIbVwnNuWXg7TWO7nLhaLrKs4UHUNnRsPnTtP6Ny29HiYBsOf9Q3Ox8ePH7Ou4kBIQ+fGQ+fOEzq3LXQuQEhD58ZD584TOrctdC5ASEPnxkPnzhM6ty10LkBIQ+fGQ+cORdOTyMP/KByd2xY6FyCkoXPjoXMTI2pF11Nv36mX8YIy2Rt4W/hRODq3LXQuQEhD58ZD5ybF2RTuDBaVccN4pcyAr0DTuW2hcwFCGjo3Hjo3Jc6hpTgL06pBrEqEK6iMvqFz20LnAoQ0dG48dG5KtDbz1GqZKkdrYfcMndsWOhcgpKFz46FzU1Lr3DqXuphDxVe7OT10blvoXICQhs6Nh85NSbRzgcsqVxhyoEvntoXOBQhp6Nx46NyUaGvWO7fWy0vLfUPntoXOBQhp6Nx46NykBAPXclG7NCiSZRU+rri5X+jcttC5ACENnRsPnZsYZ05QCLQ6gHWmBSsHwD1D57aFzgUIaejceCbj3IeHByy9vZ2dneH0d+Pg4EA62/n5ubjj/v4+3EU7RMRrdSrKHWyUS+e2h84FCGno3Him4dzj4+OdnZ1v37755NPTk5x6iUhX6YIcGd+LCmSbh4eHFxcXbf27bhA7rHHp3PbQuQAhDZ0bzzSce3t7K+dahrdIv70dHR1J5PHxEekOyCH6+vWr1FkMIsIV7WY9y/lXXH9zc/P6+oqiTTSMdWOGwYmhc9tC5wKENHRuPNNwrnBwcCASLCQrlpSzH1o4ITLIlaFu0Q8L+SJ7DNC5baFzAUIaOjeeyThXbCunW4a3SL+9LRYLsWFxw6EPZONXV1eie9/Z5Ej20bQ+oHPbQucChDR0bjyTca7g7ycUZ9zfcJABqU/2iuz08vJyb29P9jgK89K5baFzAUIaOjceOT6Tce79/b2ccbnOffL19XV3d1d6i08OgOyxMO/+/v7mzzn0D53bFjoXIKShc+OZknNFeeI7kR3S2fMM0gd6vb2wjFRDBtf+qzZp7MvLCzIsEV4jCPUAnWsLf9bp3O0yvHNPT09Fi3IS++CnP/2pnPTim7SbmxtJXl1d+eSQPD09+V+2lj8DBr9eo3PbQucChDR0bjzDO7fXn/T/j//4Dznp5+fnfl8y5JTxprjPJ4dHOpW/1dDTExQbQ+e2hc4FCGno3HiGd27fiOMWiwUSb2/+iVoktoH8jfE9Vv61c5+Bzm0LnQsQ0tC58UzPuf7pBRnh+qSMeSWZ5OWILvjXkeVQPz09IbRV6Ny20LkAIQ2dG8/0nHtxcSHn/evXrz7pnxiTk+uTW0TqICPu3d3drf8BEOjcttC5ACENnRvP9Jzrnxi7vLz0ST/3gpHbqVI3I9qlc9tC5wKENHRuPNNz7svLi5z38IU0cdzBwQES28aIduncttC5ACENnRvP9JwrSIukkyCRdRhTbSy0u0UZ0bltoXMBQho6N56pOjdslO8wSNjA3wCR0XfxXd/A0LltoXMBQho6N55JOrcysPX9YVt2W4X30bZuNNO5baFzAUIaOjeeqTpXTj0SHXpa3/h6Fo9YDAmd2xY6FyCkoXPjmaRzfQdAwvCVL1X6yU9+8t1333348EF6dcj+/v5uxu/8zu/893//N1ZIB53bFjoXIKShc+OR4zM95/qpbZDIX4sweOXLCFcqtlgs3GvLmk+fPrnumyFJrJAOOrctdC5ASEPnxjNJ50oPCd/39f1h4NnF1iL12dvbk5FsbcW8rTx0rgXoXICQhs6NZ5LOPTg4CBtVGfYawb+jfHt7i7SGzrUGnQsQ0tC58UzSudKicBbdyrDXAl5GDf2NzrUGnQsQ0tC58UzSufKZXToJEtkPo5lqozeR1Krh8TU61xp0LkBIQ+fGMz3nSovkvBencutT6Fa4vLyU6olwm+d1pHOtQecChDR0bjzTc66fSKz4bYjH7PeAi1nMt4vUSiqzVrgCnWsNOhcgpKFz45mecysT5nrNrfqqajBkuH16eio1iRGuQOdag84FCGno3Him51zpHuE3Zt50273sv337dnBwINU4OjqK/KkIOtcadC5ASEPnxjMx58pwclf/vrqMKyWCxDZ4eHjwP4nW6v4GnWsNOhcgpNnYuYeHh9K/Z8XNzY0YAYnx82//9m9y0i8uLvw5lbMvyW39KZUhre+KMu5u+9O/dK416FyAkGYz50pJca5sfFbIZ14xAhLj5/vvv5eT/n//93/+nPqbuff39z45JLJTP7yVTrXBb6DRudagcwFCms2cO0/k+Ezm3oKMK/3fD6Tze7sDz+L4+Pjo3zHb3d2VD0+ItoTOtQadCxDS0LnxTMm5Ijg548VTYt++fZPk8fGxTw6AyLHonKLdLjM80LnWoHMBQho6N54pOXexWMiotngwwP8A8ABPick4WnRfdEuxfPffOqNzrUHnAoQ0dG48k3GufxWi+NkF8eBeRq83Fu7v76Wzieh9Z5PlVP2NzrUGnQsQ0tC58UzDuYVhi4/z/j5D8YvrCZExrGxWBrOyO9/HDg4Orq6uutxJWIbOtQadCxDS0LnxTMO5fhKD0LD+PkNHD8rBEd+JvsUd0qmk4xVDWkFUK3vsqYPRudagcwFCGjo3Hjk+E3CuXNsy6ixuI4ikcPpTI31P9tWHBCvQudagcwFCGjo3nmk4Vwjv297f38vVngrZmliv1/vCy8h+0YPpXBvQuQAhDZ0bz2ScOzHoXGvQuQAhDZ0bD51rEzrXGnQuQEhD58ZD59qEzrUGnQsQ0tC58dC5NqFzrUHnAoQ0dG48dK5N6Fxr0LkAIQ2dGw+daxM61xp0LkBIQ+fGQ+fahM61Bp0LENLQufHQuTahc61B5wKENHRuPHSuTehca9C5ACENnRsPnWsTOtcadC5ASEPnxjMl5z5/+fDu3Ycvz0i+vd2dSA84ufOJLBcEhbIyAXlxsLTW0k70XlJB51qDzgUIaejceKbkXMEZMReic2G+nJmy8GKY45ZLYYbr162VJdQqeo1k0LnWoHMBQho6N56JObf0aejViliFMlDJcgrNk5KlbFroNfDs0pYTQedag84FCGnG6Fy5rrZC5G+tFz94MwKcBh2lL0ORgsKnWpoula9Xs1YB1moq0g061xp0LkBIMzrn+h81sMzR0RHqOgZCczq0VzMkVDo3IFitZq0ArBfuJiV0rjXoXICQZlzOLX5XRjqoTQ4ODuRI9nHl90Ju0VKHkePcimTXDGJddl/GpXPtQecChDTjcu7Z2ZnUU4a6SNvj27dvOzs7i8UCadM4cToV5v8XQaXPMhBmVTQqWUqqa7KTQudag84FCGlG5Nynp6dR6MxfPH38pGNanEFzEYbLTpeldaulSh3rlJaszsvSdG4zdK4t6Fzh6OhIKvn4+Ii0VZZ/WNcgTopKgyqQaRcE6qyYNCsVbGPFWg46dy10ri3o3NvbW6mh1BZp2/janp2dIU36hM61Bp0LENJs5FwZ0KwctdydpB/QyMhxf3+/+++BD4k/8vZH5ROAzrUGnQsQ0qx2bvZhE6hPiuXnxODDZC7a5+fn9J8jLy8vZRf275CGiG2lznL8kSa9Qedag84FCGlWONfZtBRneB+vMGpYJJNvKWYpU7mf1wH/JICMcwf+Be/u+Kcsbm9vkSb9QOdag84FCGlWOLcyVnVO9RYtM1SRskBGZfVO+BqO0Vzy18J/mTa6vxbjgs61Bp0LENKscK6zZp02V8m0Eq8oeHP8J/RxvdkV4u+KyOWENOkBOtcadC5ASLPKuQ7n3YxCn/UuddGKiVMNdBeLxc7OztPTE9IjxDdhRN/+jQ461xp0LkBI0+TcnMy9mWprnOtCyx5OMtD1UyuM/YkrsYC0YrxDdfvQudagcwFCmnrnVoepuUKXVOp0XOfW7uPc4s2CCdwM9W9z9KEDItC51qBzAUKaeudmLi2l6VTrU8qlq4SbZJhrf2qFePyjFyOZhGF80LnWoHMBQpoVzhWcNwsKgZbSVfkZysZlYgPGMrVCPP6KGtcjxmOBzrUGnQsQ0qx27gpEtWt1KsrtNsody9QK8RS3SvhlWnLoXGvQuQAhTWvnrh/EdjXuuKZWiIeTMPQEnWsNOhcgpNnAuY1j3ZhhcBMyHmw5tYIovuZRYn/nA+6v/pVwmZKVlQkzsk0Ffy/8RjxZuaU1llZpxp8OTsKQFjrXGnQuQEizkXN7pP3UCpn1qt7TwRXOxVKe5dYJimV+LbbqMrNEseAIV4+BkzD0AZ1rDToXIKQx5Vz//X7LqRWcUE9O9HMSlZhL1jvXO9Rl5v/n1K2TBQLPunXC3cZwenoqh5qTMCSEzrUGnQsQ0phyrq9MSx9lcrxTA84iFOFcb05HQxENVNtUZDXyd2V3d3cazx0bgc61Bp0LENKE/el3f/d3sbQ92r+vBQOWXoULEUeRRqG6oqpAsdUVuFyhsk4snIQhLXSuNehcgJAm7E/x25eS79+/RyIRf/Inf/LjH/+4/dQKuR1zseZCDayZZ+Vo50KgzVqu4LI3NG72PSEnYUgInWsNOhcgpDHi3A5TKxRu9Zos/KqdqwQaCtXluRXy/3OK7YCKZavZLbm/v5f2chKGJNC51qBzAUIaC84t3hfY6BZnKVSnRQEuLOOlWDOyYoGN8wxVqCrZcGsOSQdlN4GTMKSCzrUGnQsQ0lhwbrepFUIbrloWXDInEK4yZzUAiWeEwhWkaEfnyjHkJAxJoHOtQecChDRbd+70plaI5/z8XA47J2HoCJ1rDToXIKTZunOnN7VCPMVNFX6Z1gU61xp0LkBIs13nTnVqhXhubm7kCHAShi7QudagcwFCmi06V0Z5LadWmCYHBwdy8DkJw8bQudagcwFCmi06t/3UCtOEkzB0hM61Bp0LENJsy7kbTa0QEDxS0PH5ga74mlQea2gJJ2HoAp1rDToXIKTZlnP9fje1TPDsrH6MdljwbFkws8OGcBKGLtC51qBzAUKarTjXf5re/C0s59lSct0fle2Irs6GcBKGjaFzrUHnAoQ0W3Gun22g/dQKOdqy03CujHA5CcNm0LnWoHMBQprhndthaoWcKTpX4CQMm0HnWoPOBQhpBnZu8RZApxuXE3WuwEkYNoDOtQadCxDSDOzcblMr5Ezxfq5nzm9Cbwydaw06FyCkGdK56YTiLAfPBovbIqFzBf9niY8tx0PnWoPOBQhphnRuyqkVnOdAOt1tSFrnFrdf+GVaJHSuNehcgJBmMOdyaoV4EnzNOCfoXGvQuQAhzTDOlbEbp1ZoxWKxkDPCSRhioHOtQecChDTDOJdTK7SFkzDEQ+dag84FCGkGcK6fWmF3d/f+/l4uCRKJn2+MkzCshc61Bp0LENIM4NxwF6QtXZ9lngF0rjXoXICQZgDnZoO2Xvj1r399eHiIRP/c3NyIAZEYkJeXFxxKUgedaw06FyCkGcC5/XF9fS31R6J/jLSaVKBzrUHnAoQ0dG48dK5N6Fxr0LkAIQ2dGw+daxM61xp0LkBIQ+fGQ+fahM61Bp0LENLYc+7zlw8r50+4O1FZU3Rui+YTD51rDToXIKQZ3Ll37vdsCpYcUk4SFsyokJd6fn5Wk4hZdm5Q/WorG7Kqc6T5opjModp84qFzrUHnAoQ0W3FuMSFMppRgephCKS4jl0ulkJTJE2adq6vc0GSXVUq0aD4SLq/6Y2tB84mHzrUGnQsQ0mzXuVqugXOUfVyZYJUyz6pzVe2FoJGV5qtAdbWMSuNXlJo1dK416FyAkGbbzg2dssomlXi5hlHnLmmypCaraF1985fWaNj6TKFzrUHnAoQ0JpzrVVMvkzK/oJCTUedWmxhQk5W3ZoVLl8NF84mHzrUGnQsQ0phwrk/XSMeFlkVUFJzUOHfFWsvhhs3PEzrXGnQuQEizbec6gWDUtuSSqp5zioHepO7nrlDpcri69dlD51qDzgUIabbrXJdQqVImqpyitJBV54aSFVRTXJY+AHlB1fyCJecuS3ju0LnWoHMBQpqtOLdES6a0TmYmhVIYEmadK4QtqChyVVatdJcUW6/mOUPnWoPOBQhpBnduIyKYtT4R5+QOsuzcTWjZfOKhc61B5wKENLacu34Up5QzNee2bD7x0LnWoHMBQhprzm0c7FWzpufcVs0nHjrXGrN27p//+Z9nXcUh3XGZw8NDZL97d3Nzg+g6tvWLCRXOz88Hdu7v/d7vYd9D8Zvf/AZLZAWfPn1CD85+5xTRdITXCLpCD9C5ttjYud9//33WVRwy5l1G1Insd+8ODg4QXYeU3NnZQWKrXF1doan9I8f/t3/7t7HjQfjjP/7jP/qjP0KCrEA+fKAHv3u3WCwQTUd4jaAr9ACda4uNnSs9JusqDoQ04eem+O1Lyf4/ZZtj+FbLdSggQVbgbeWRYSmi6QivEYR6wLeCzrUCnWsBOtcm3lYeOtcCdC5ASEPnxkPn2sTbykPnWoDOBQhp6Nx46FybeFt56FwL9OrczR/fafU7K3SuBehcm3hbeehcC3Q/THfB66orXsMU96LAimfWgwLZKu1+Z4XOtQCdaxNvKw+da4GOh8nJslSj028u1cKZYRFdPCeIhgVkC3FvFdG5FqBzh0IukuWLCCx/QPS28tC5Fuh4mCqjUadM78kyQxUpC2SL2XIQE4LilY2vhM61AJ2bmOwC8YSXwdL1BLJgzQdEbysPnWuBrodJznCdGFfoUusV6LJBqrZ0DXSuBejcpLjOjwshWFQXSxh3y/nFImWCy8bbykPnWiDFYZJz7CnO9JItsy4RlghY6dxKzkroXAvQuSnRV1BxIagrQiXCFVSGt5WHzrVAysMkpxpWXXIucPEli6oeolKrNlOBzrUAnZuS+otCRxUrrxtvKw+da4Fuh6naB/KTHZ70+t4ToM0aFqgpXAedawE6NyW1V83KMYjLCK+UcG1vKw+da4GOh0lObnCyy1MfnHTVH1z5pV4TlFCFXaK2i1Wgcy1A56YktGaRqr8gXLQSDgt6W3noXAt0P0zZKc8pTr3qM860oOwbYVcJthF0Ht3vVkPnWoDOTUlozUbnumurGlNXjreVh861QG+HSfpHlDBXIx1nqTPVQudagM5NivMrLqBysToKqRVuRdjeVh461wI9HqZqB2lHtHHpXBtMw7mvr6+3t7dIvL1dXl7i9Hdmf39f+tvp6anU+ebmZn13cuYExZWgrqmgAECeKiW7Qy6da4MeD1PWKTazbrsV6VwLDN9qZ9zUzvXX9v39vU+Kgv2c3PEz1q9isVhk/ahEDpd0sOvr6xZdN+bK0MMV3yIPnWuBXp07EHSuBYZvtTNuaud++/ZtZ2dH/Ij029vFxYWc/XDw2wXZvohPtnZ2dhZaWEbBsqOYPrbu42P1A6K3lYfOtQCdCxDS0LnxDN/qTLnp7+eKDeV0F5JdtnBCXl5eZEenp6fFL9zIgPrq6kriKFFDw1i3JsvbykPnWoDOBQhp6Nx4JuPcZclWLNwT9/f30t9k17Kv3d1daVqjeWOR7WT910HnWqBf576+vspp7hv/y6Pxv8tbEH64Q0jzt3/7t8imc9cxGecKXrLFXV1v4ePjY5/sFblkpCf7nik7lZrI3pG3Ed5WHunSiKaDzm1Lv86VY+RPxkgJpUznNjMl5/p+G0pW/q6LAUWISPePDKsPDg6kGrLfi4sLRNvjbeWhcy1A5zZB58YzfKsz5fbiXOHjx4+hZK+urqQPFCPfwRBLylGVXYt/Hx8fEW2Dt5WHzrUAndsEnRvP8K1O+PDsKuRjvt+XfMCXpPjFJ4dEvH9+fu7rIwttx9p0rjX6de7Ly4scrL7xZvz8+TPS0fgRhAchjb9T7KFzm5lYq6XryjhXOgDSb28y0tzb20NicGSQ6281yL+tvluTbuw7sEDnWqBf5w6DP+sbnA8+t5CQ6bXa315A4u3NDzY3+4CfCl8HOc7x1aBzrUHnAoQ0dG4802t1RbI3NzeSLO42bAupgPwlECJrQudag84FCGno3Him1+rb21s575eXlz759PQkybOzM5/cIvJnQA61VOb6+hqh1dC51qBzAUIaOjee6bX65eVFznv4xJiMLqXPILFV/NGW6q3VLp1rDToXIKShc+OZZKulRWGjFovF7u4uEtvGH3Dpmc3apXOtQecChDR0bjyTbLV/cAWJvD8M+WZEM/6YS5Ua3kumc61B5wKENHRuPJNsdUWyG/e0/pDK7O3tyeh71SvCdK416FyAkIbOjWeSrT49PQ1Pvb/yn56efNIIYlKp1aobzXSuNehcgJCGzo1nkq2uSNbPpduHuTriJ+WR2iIdQOdag84FCGno3Hgm7NxCVdfX12HSDq+vr/5tzD/90z+VXh0iJ8V134w+Hi6mc9tC5wKENHRuPBN27sPDg0/6mW4MOldG4js7O3L8f/Ob30j1Qj59+pT1X4cksUI66Ny20LkAIQ2dG88kW+1fRStOfUXBRpBB7v7+vji39oVgX2cPnWsBOhcgpKFz45lkq30HKB4JqCjYCL6SxftyFehca9C5ACENnRvPJFt9fHwspx6JJQVbwMvo6OgI6SXoXGvQuQAhDZ0bzyRbfXBwIJ/ZkXh7E7VJT0DCAP7+8mKxaJjdkc61Bp0LENLQufFMstWVCRb29vb29/eR2Db+IYpm4Qp0rjXoXICQhs6NZ3qtfnx8lPNeTCS2POXNFvHClQO+tlvSudagcwFCGjo3num12v/2TzGVgQhLkqu+qhoS/wZEjHAFOtcadC5ASEPnxjO9VvuzX3xy9woe/mcoQ6QyvtPKv823FAroXGvQuQAhDZ0bz/RaLc0JW1RR8PA8PDxIfaQOreZNp3OtQecChDQbO3d3d1d6yaz4/PnzlFr9q1/9Sk76P/3TP/lz+vr6Kq2TDuOTAyOi911xJ/oneQqkLVn/ddC5FqBzAUKazZwr1+fFxUV25c6IiTn3z/7sz+Sk/8///I8/p/5mrpxWnxyS+/v7vb092fvh4eEGU5pJW1z3zaBzLUDnAoQ0mzl3nsjxCT+Jjxr5q1l5LKwyqeMwiCJ9F5U/Zmt/g2cVdK416FyAkIbOjWdKzvW/PhmOagd+MlcqUHRO6YRd3nyjc61B5wKENHRuPFNy7mKx2NnZKUznFSyXvU/2x8vLy9XVlZ+VUZDu173X0bnWoHMBQho6N57JONcbNnw2oKLg5Ly+vt7c3PgXiwXZVxLbeuhca9C5ACENnRvPZJxbMez9/b2c/VaPZ8UgnpUti0qkE8rufB8T7V5fX0sWCqWAzrUGnQsQ0tC58UzDucuDXD/8FBWKsLogWxZxnJ6eSq8r7h4Iu7u7sourq6uenvylc61B5wKENHRuPJNxrgix0J+fciE5+/v7x8fHl5eXtbOMp4XOtQadCxDS0LnxTMO5FfzH/yTc3NyI8oafe1d2jR5M59qAzgUIaejceCbp3AlA51qDzgUIaejceOhcm9C51qBzAUIaOjceOtcmdK416FyAkIbOjYfOtQmdaw06FyCkoXPjoXNtQudag84FCGno3HjoXJvQudagcwFCGjo3HjrXJnSuNehcgJBmdM69urqS3rkVYubPleqhomQo5LCjB9O5NqBzAUKacTm3p5em0jLAm1ckhM61Bp0LENKMy7l+cpYNfkpgGKRiUj2pJNKGef7y4d27D1+ekXx7uzuRHnBy5xNZLggKZWUC8uJgaa2lnei9pILOtQadCxDSjMi519fXUsnk01+lRaonldz4Jw+GxBkxF6JzYb6cmbLwYpjjlkthhuvXrZUl1Cp6jWTQudagcwFCmrE41/+WjJB2GsDkjKWeGblPQ69WxCqUgUqWU2ielCxl00KvgWeXtpwIOtcadC5ASDMW545o/DiK8ThwGnSUvgxFCgqfamm6VL5ezVoFWKupSDfoXGvQuQAhTXvnyrVTXqEV7k5WZnVhRPdJPcbvO4eE5nRor2ZIqHRuQLBazVoBWK+XviHQudagcwFCmhXODa8udS0V1x9wo5eiyPPzczU/CX5S7RE9D+Cfr5BqI22W/DyX5yxynBssOtYMYl12X8alc+1B5wKENHXO1VdIeHUVVx8S7mK9q1xuEm64+trjf9dA6on0SPAHViqPtEXcGXTnM/+/CKoTWAbCrIpGJStIrc1OCp1rDToXIKSpc27lAinHMLVXTpkNUl5fr6+v+/v78jl9+JmwOyIVlmq/f//e7Jdpcp6KExUuuxNantFqqfJU65SWrM7L0sn6xBJ0rjXoXICQps656joLqL9wlpy7FOjA5eWlVEz+RXpU+MpfXFwgbQl3itXZVIFMuyA4la5MkMxKBdtYsZajvuskgs61Bp0LENLUOteRXYOO4upZ4dLlcKoLzA8VZZw7hueuahjvIH1c0LnWoHMBQpqVzs3J3Js5Ndq5Kwq2xtft/v4e6RHif8b8+PgYadIDdK416FyAkKbGudVhaq7QaOcmGeeO5qv/dfiHLh4eHpAmqaFzrUHnAoQ0Nc7NhralNJ1TfarepUvOXeHmlvhHXCfQBaUJ0pARPVw8Ouhca9C5ACFNnXMF582CQqC10l1SbIJhrn+V6/z8HOmRIw2R5nCax56gc61B5wKENCucuwLx61qdinK7jXJfxzRlQRRFi15eXhAi6aBzrUHnAoQ07Zy7fhDb2bj51Ao3NzdITwJpjjRqHJMwjA061xp0LkBI09a5jWPdmGHwGvzUCgcHB0hPCGmUNI0zmieHzrUGnQsQ0rR3br+0nFpBhtU1r2/4u9EYb1dH5rj/nJUJM7JNBWN0vxFPVm5pjaVVmvFPYhweHiJNEkHnWoPOBQhpTDnXT61wenqK9Hoy61W9p4MrnIulPMutExTL/Fps1WVmiWLBEa4eiTRNKmZ7EobxQedag84FCGnsONe/tbW7u9vmrS0n1JMT/eBEJeaS9c71DnWZ+f85detkgcCzbp1wtzFI06SBlidhGCN0rjXoXICQJuxPnz9/lhMfwz/8wz9gKR3/+I//KHVoObVCJkc3s1mpyCIU4VxvTkdDEQ1U21SkEcuTMIwU6Tz+JAp0rgXoXICQZjPnymAtvnAMf//3f/+jH/1osVi0HADCgKVX4ULEUaRRqK6oKlBsdQUuV6isE4s00L/uwUkYUiH9JzsjDjrXAnQuQEgT9qf47cun47Sdw1ej/dQKuR1zseZCDayZZ+Vo50KgzVqu4LI3NG6Gn4RhAq81G4HOtQadCxDSWHBuh6kVCrd6TRZ+1c5VAg2F6vLcCvn/OcV2QMWy1ez2+Mcz+hDEDKFzrUHnAoQ0FpzbYWqFUqhOiwJcWMZLsWZkxQIb5xmqUFWy4dYckg7KboI0lpMwpILOtQadCxDSbN253aZWCG24allwyZxAuMqc1QAknhEKV5CiHZ0r+EkYRjoduynoXGvQuQAhzXadW0xEMMNnp4q288u0jtC51qBzAUKa7Tp3klMrxMNJGJJA51qDzgUIabbo3AlPrRCPNF+OPCdh6AKdaw06FyCk2aJzW06tME38MxtympAm7aFzrUHnAoQ023Kun1qBH6sFf4OFkzBsDJ1rDToXIKTZinNfs6kVOn19FDxV0P0Rgk74mlSebGiDHAT/ZdoMv0hMAp1rDToXIKTZinP9nAMdHpMKHp/VT9IOCx4vCyZ32BB/QOSqQ5q0gc61Bp0LENIM71wZ1nV9HcB5tpRckqdlu6CrsyGchGFj6Fxr0LkAIc3wzvV77HRtaMtOw7lyQOSwcBKGDaBzrUHnAoQ0Azu3w9QKAVN0rsBJGDaDzrUGnQsQ0gzs3DSfoCfq3AR3XWYJnWsNOhcgpBnSuX5qBelbSG/MFO/nevyFx0kYWkHnWoPOBQhpBnNu0qkVnOXg2WBxWyR0rj9KLX+gaO7QudagcwFCmsGcm/jJf+c5kEh3m5PQuUL7H+KcO3SuNehcgJBmGOf6qRWkMkiTRvxZ4yQMkdC51qBzAUKaYZzLqRVa4Z/umPnsP/HQudagcwFCmgGcy6kVNsDfipntLJetoHOtQecChDR9O9dPrSAbXywWUhkSiRwuOWiJvnKcOHSuNehcgJCmb+f6mQTIxmz6q0Uzgs61Bp0LENL07dxekTpjaRCkydJwJIgZ6Fxr0LkAIQ2dGw+daxM61xp0LkBIQ+fGQ+fahM61Bp0LENLQufHQuTahc61B5wKENMac+/zlw8oXee9OqllSZywNQv/Obdd84qFzrUHnAoQ0wzr3zv2wQsGSQ9RsNf7t3vKd2ufn5+psNpKPpUFo5dzg5eRqQ1dl1TQ/IwvWNJ946Fxr0LkAIc3wzi0smlklmKegVIorJss1v3kjOUFESmFpEOKdq5vW0GqXVTZaGxepYLHSfOKhc61B5wKENFt0rtaJdk6Gy64qRpWSOmNpEKKdW21K0M7KESgDah3d8iCrumUi0LnWoHMBQpqtOjd0S41N6pyrYlJnLA1CrHPr6g1qsnzDdfNXpho2PV/oXGvQuQAhzfad63VSJ5NawYQ6kjr7hWGIdW61lQE1WVmD/p9uathIndI5xEHnWoPOBQhptu9cn452bhiUOvuFYYh1bm29PTVZ7ZzbsO3ZQudag84FCGm26lwnENikziW1fgkFJHX2C8MQ69yKMlU7K0cgD1SaqpPh5qqbJnSuPehcgJBmi851CZWqymSth2V9LA1CtHNDyQqq1S5LH4OsYKX5wQbUtlTziYfOtQadCxDSDO/cklAyddKtE4wqJdvA0iDEO1fI3AoqjajNqjY/KBSsvnyQCJ1rDjoXIKQZ1rmNiGXW+kScExhI6oylQWjl3Na0bz7x0LnWoHMBQhpDzl0/iqsqR+qMpUHo17ntm088dK416FyAkMaUcxsHezVZUmcsDULfzm3bfOKhc61B5wKENMac2w6pM5YGoX/nkk2gc60xX+dK/xNHZF3FISd1Gf+7W57Pnz8juo7d3d34wv0hdUZTB0GO/97eHvY9CH/3d3+HJbKaH374wXdg4dOnT4imQ87CP//zP/tldIUekI1L/elcK2zm3MfHx2k79/r6Gk0dBDn+P/3pT7Hv/pEjLMcZCbKavp17cXExwC+Byo6k/nSuFXhvwQLS5CHvLQy8u/HibeXp497CMNC5tqBzLTCwBAfe3Xihc61B5wKENHRuPANLcODdjRc61xp0LkBIQ+fGM7AEB97deKFzrUHnAoQ0dG48A0tw4N1Zoulh5OXfhaNzrUHnAoQ0dG48A0tw4N1tAVErup56Aa/6Pp4vhlfwan4Xjs61Bp0LENLQufEMLMGBdzc4TqVwZ7CojSuJul/G029B07nWoHMBQho6N56BJTjw7obGebYUZ2Ha6iA2Q5cVVCk61xp0LkBIQ+fGM7AEB97d0Gi55qla5S47VwXoXGvQuQAhDZ0bz8ASHHh3Q1Pr3CW5epbD4dp0rjXoXICQhs6NZ2AJDry7oenm3DBC51qDzgUIaejceAaW4MC7GxrtUY5z6Vxb0LkWGFiCA+9ucJxI4c1yUY9+c5acqwJ0rjXoXICQhs6NZ2AJDry7LeDMCQqB1kp3ybmqFJ1rDToXIKShc+MZWIID7O7bt29yqXfn8vJSZPf4+IjtdkH8WjPS1YhyAwVLBdCD6Vwb0LkAIQ2dG88AEgzpY3ci2dPT09vbW6Tf3sIJlJOwu7srvU72cnNzI7vDbtpQf3+hRBuXzrUHnQsQ0tC58fQhwQb62J1IcGdnRzyL9NubDFHl1Es3EFt14eLiQqwh/S3scsL+/r73b5tpvxvGujVZdK416FyAkIbOjacPCTbQ0+7Ozs7kXIsEfVJUuJeR9qcQRO6yC7GtONf3Lhn/SmcLh9ipoHOtQecChDR0bjw9SXAVPe3u5eWlIlk/1C0snBzx79XV1cHBge9msmvx/ma3HWqhc61B5wKENHRuPD1JcBX97c5LVv71yeUbDj0hLRKz+JGv7FFGwUl6EZ1rDToXIKShc+ORJk/DuTLClU/6oWRFf9IBnp6ekO4ZMWPRM6UHdhzz0rnWoHMBQho6N57+JFhLr7vz572QrKhKknLZ++QwPDw8HB0dyX7lD0Ax6N4AOtcadC5ASEPnxtOrBJeR3e3t7YlE+sDfXgglK/s6ODhAYkDu7+9l11IZ2ftmA2061xp0LkBIQ+fGI00e0rmvr68yDJQz2BPffffdH/zBH2BnHfpYd6Sl5+fnvhNeXFwgGg2daw06FyCkoXPjkSYP6dy+8ZorXh6T8aYku3zG74jUxL+gcXx83OrBNTrXGnQuQEhD58YzMefe3t7KSS8k+/LyIknpDz65FUS1Ilyphsg3/os1OtcadC5ASEPnxjMx5y5Ldm9vb4Anxtbi7zVLZSIncKBzrUHnAoQ0dG48E3OuIM3Z399H4u3t8PBwZ2en1ef6npAxuNRkd3c3Rrt0rjXoXICQhs6NZ3rO9Y9qyYDXJyt3eLfL/f19pHbpXGvQuQAhDZ0bz/Sc6z/FF57yd3ivr699cutEapfOtQadCxDS0LnxTM+5olc578W8MyIsSW7x0YVlvHblsBeD8WXoXGvQuQAhDZ0bz/ScWxnYynBSknLx+6QR/B+Go6MjpJegc61B5wKENHRuPNNzbmVgKw2U5OnpqU/awffSq6srpDV0rjXoXICQhs6NR5o8MedWBrYWHtGt5fX1VY78d99995//+Z9i1QqfPn3K+q9DklhnbNC5tqBzLTA950qL5LwXzhUkadC5wsXFhdTt93//96VLV5CT4rpvBp1rAToXIKShc+ORJk/MuQ8PD3LeC+d++/ZNkgad+/T0tLOzs7+/X/vssLeVh861AJ0LENLQufFMz7liKDnvxX1SaaAkz8/PfdII4tnFYiHOlb8QCGnoXGvQuQAhDZ0bjzR5Ys69ubmR8148t1AZ9hrB/4Bbw3xjdK416FyAkIbOjWd6zvWPYd3f3/tkZdhrAW8i6cZI10HnWoPOBQhp6Nx4pudcf50Xn9nFtpIsXpHYOr56i8Wi4YUIgc61Bp0LENLQufFMz7mVSW0G/lW0ZvwYfK1wBTrXGnQuQEhD58YzPedWfony4OBAIkhsFf9kmBztmFl06Vxr0LkAIQ2dG8/EnCvNkZN+dnaGdKbg5junAyCD7mLa8sg+Rudag84FCGno3HikyVNybuWhBWmdJEMFD4/UQVQr1Wj18zx0rjXoXICQhs6NR5o8JedWOpW/fyoi9snhkQrIQFvqIPZBKA461xp0LkBIs5lzZTBycHAgG58V0uSdnR0kRs7Pf/7zH/3oRz/72c9wRrf6IxHS8WTv0gP39vaKB9fioXOtQecChDSbOffbt2/SueeGjAFFCkiMnF//+tdyxv/93//dn9CXlxcRrojPJwdDFH9xcSG7lspIV1z7iEItdK416FyAkGYz584TOT6Tubfgx5XFUwGVe7sDIHq9vLyUv2Gy3/39/Q2GtwV0rjXoXICQhs6NZzLOFdVWRrX+h9FiHszqjthW/OJv3Ypzxbwdb2jQudagcwFCGjo3nsk4189gULxv5mfRbfghhlTIaNo/BybIkexuWw+daw06FyCkoXPjmYZz/byI4asQ/vWztT+vuxli1fv7e9mFH9gK0ifT3sSgc61B5wKENHRuPNNwrr+NUBjW32cIFdwdEZ8MaWU07R+29ciyDGz7uH1B51qDzgUIaejceCbg3OXbCOfn5xI5PDyUa74LsoWws3nkcEkHu7q66rVryd6xPzrXBnQuQEhD58YzAecKMgItBrnywd8/OZAE/+qwCF30cX19PVh3onOtQecChDR0bjzTcO70oHOtQecChDR0bjx0rk3oXGvQuQAhDZ0bD51rEzrXGnQuQEhD58ZD59qEzrUGnQsQ0tC58dC5NqFzrUHnAoQ0dG48dK5N6Fxr0LkAIQ2dGw+daxM61xp0LkBIQ+fGQ+fahM61Bp0LENLQufFMybnPXz68e/fhyzOSb293J9IDTu58IssFQaGsTEBeHCyttbQTvZdU0LnWoHMBQho6N54pOVdwRsyF6FyYL2emLLwY5rjlUpjh+nVrZQm1il4jGXSuNehcgJCGzo1nYs4tfRp6tSJWoQxUspxC86RkKZsWeg08u7TlRNC51qBzAUIaOjeeyTnXa9BR+jIUKSh8qqXpUvl6NWsVYK2mIt2gc61B5wKENHRuPBN0rjanQ3s1Q0KlcwOC1WrWCsB64W5SQudag84FCGno3Hgm6NzcoqUOI8e5FcmuGcS67L6MS+fag84FCGnG5dzX19f9/X1U1yRSvSS/NzMITpxOhfn/RVDpswyEWRWNSpaS6prspNC51qBzAUKacTn38vJS6rlYLKRdBvE/iyCVRHVt4wyaizBcdrosrVstVepYp7RkdV6WpnOboXNtQecK/ldkLA8k/TBcKjnMD+h2wUlRaVAFMu2CQJ0Vk2algm2sWMtB566FzrUFnSv4qha/VmsTqZ5UUqqKNOkfOtcadC5ASDMW5w72e+Dd8T/y+PDwgDTpGTrXGnQuQEgzFucuFgv5zP709IS0YZZ/zJz0Cp1rDToXIKRp79znLx9W3pq7O+nlrt319bVU7+zsDGnzSFWlwldXV0iTPqFzrUHnAoQ0K5ybfaMC1Nch6suQ4EuTLPj8/Jz+yxL/27TCeJ7BKuv88vKCEOkNOtcadC5ASFPnXKfSUpzhl9VLxkUqXEPKVL607oYfM8pQF+mRMLqx+Xihc61B5wKENHXOrYxVnVC9RZeUW8o1yKqs3olR3xv196AfHx+RJv1A51qDzgUIaeqc66xZp00t05UpLeNu+GcARqot/6zF4eEh0qQf6NwMue42H+uk/SaGzgUIaWqd63DezSj0WXHpagPrnM2ZwLOu/vAaf6Z47MzHue4SzKlcYuVFFxSqH/oEBfKNJP4mhs4FCGlWOjdHTgXOXbRzKwU3Y0TvdDXg3517//79iL4AHB0zcW6myuK6ctdlef0Vl58rlIfD5ZIgWikgG+l82XroXICQpsa5Wqb+zLhzkf8PdDJcqbqBjfBTK4xl7oIGfEMuLi6QJqmZh3PlqtJKDALlFaeuveASdYvZ8urLtprqAJ0LENLUjXPdydQnzqcqp6TMCBerZ3Uj7E+tEM80BuyWmYVza66q4npc4craC1GX1akEV66HzgUIaeqcK7ijX1Cchuq5DUoFp2pFD2iDr9VkboP6G9PHx8dIk6TMwrlyVa1y7pIq8+uyzp/66qxcqwku3Qw6FyCkWeHcFcjJXHtO5LzVnet4RjS1QjychKE/5j7OrcnKcPGly7XRuau21BY6FyCkaefc9X8JOxt3VFMrxMNJGPpjFs51V5a+tIpAaEp9fdZcrVqrlQI15TeCzgUIado6Nztpq85LQ1YsLV/fcv1uuZu4flV00Go/QqfLyoQZ2abK3oiNeLJyS2ssrdIMJ2HoiXk41/e/ore5vpd3xqCLu0JFH3VllrpnUEIVFlw6ujs3QecChDTtndsjxTQF0V+dZdardiwdDDpkRtmxwi7n1gmKuaxyq0XfLRYc1R67jqJ1/DItLTNxrpB1S1D0Q0H1cddJQVkm7NDBVsKNVDbTBToXIKQx5dzz83OpRpupFVwvOTnRf50rsWpHcj0uL+66p8vM/8+pWycLFAt+Xd1l18NJGPpgPs5difRL1WE3Qnp02w69AjoXIKSx41zZe/s7npkc70oRhqEI53pzOhqKaNwKktdUpBFpoOyOkzAkhM4Vqt28NbKBjTp0HXQuQEhze3srJ1v44YcfUG5L/OxnP5N/W8oIBiw7HFyIOIo0CtUVrfTWYO0aXK6wYQ/3T2XIeUGadMbbyjNb53Yb63ZZtwY6FyCUgvfv33foHDX813/9l9RQmol0LLkdc7HmQg2smWflaOdCoM1aruCyu/RQfzY5CUMq6Fxr0LkAoRSkde7r66t84t7d3W3/5VLhVq/Jwq/auUqgoVBdnlsh/z+n2A6oWLaa3RJppjS2zVeFpAk61xp0LkAoBWmd22FqhVKoTosCXFjGS7FmZMUCG+cZqlBVsuHWHJIOym6Cb7JcZkiTDtC51qBzAUIpSOhcP+iTce5Gg77QhquWBZfMCYSrzFkNQOIZoXAFKdrRuX5oz0kYkvD582ecp+wvt2h3jHz69Enqf3Nzg3RvDKB1OhcglIKEzj09PZW63d/fIz0bpMnS8Im94rwVtv7177gY4NMVnQsQSkEq505yaoV4/CQMMvRAmmwEndsKOjeKqTr34OBAPl+nGjKPDmk4J2HoDp3bCjo3ikk69+bmRmp1fn6O9Czxr95t9P0hAf5OqEeWxSljxP/l+Pz5M9K9McDnKjoXIJSC7s4tJh+Y+fNSxXHgl2kbIx5BF+dzCzagcwFCKejuXD++k6Eu0m0Jniro+AhBV3xNKk82tMGP9zkJw8bQudagcwFCKejoXFl3Z2fn4OAA6dYEj8/qJ2mHBY+XBZM7bIgcCtkSJ2HYDDrXGnQuQCgFHZ3rv6/fXDHOs6Xkuj8t2xFdnU3gJAxdoHOtQecChFLQxbn+udTT01OkN0BbdgLOFfxzypvfbJkxdK416FyAUAo2dq5//2qjqRUCpuhcTsKwMXSuNehcgFAKNnZuh6kVAqboXMEfnJk/PLcBdK416FyAUAo2c263qRUCJnc/1+M/BMz5JZHNoHOtQecChFKwmXPTTa3gLAfPBovbIpVzBU7CsAF0rjXoXIBQCjZwbuKpFZznQCLdbU5C5wr+oY4ZTvqzMXSuNehcgFAKNnDuzKdWiEcOkZ+EgV+mRULnWoPOBQiloK1zObVCKzgJQyvoXGvQuQChFLRyrozX/JQCHLhF4o9Y1yfqZgOdaw06FyCUglbO7Tq1wizxnww6vTkyG+hca9C5AKEUxDtXiu3s7KAGpD2chGEtdK416FyAUArinXt/fy+dqSfk0zeWBuHz588D71HgT7KvRY4SujidawM6FyCUgrbfofVE2katRZosDUeCmIHOtQadCxBKAZ1L7EDnWoPOBQilgM4ldqBzrUHnAoRSQOcSO9C51qBzAUIp6M25z18+rJw84e6kmpW2UWuhc21C51qDzgUIpWBT5965H7MpWLJrOUNYMJ1CXur5+bk6g5jkYmkQ6Fyb0LnWoHMBQino4txiNpjMq8HcMNq4y4sOKROskbZRa6FzbULnWoPOBQilIIlzK0LVyi1LlXGHSqVt1FroXJvQudagcwFCKUjk3NCugUwbLKt9nLZRa6FzbULnWoPOBQilIKVzvVBDlzY5VyXTNmotdK5N6Fxr0LkAoRSkH+dGOzcsmLZRa6FzbULnWoPOBQilIJFzy2GuUmm4vOTcMJm2UWuhc21C51qDzgUIpSCJc11CpQqXVlwcKlf5OG2j1kLn2oTOtQadCxBKQRfnloQu1dLN1ArKEa9DlZJcLA0CnWsTOtcadC5AKAWbOrcR8ay2cA2i3MDBaRu1FjrXJnSuNehcgFAKenFuZRBbgzYunUsy6Fxr0LkAoRT05NzGsW5NVtpGrYXOtQmdaw06FyCUgt6c2460jVoLnWsTOtca83Xu5eVl1g8ny+7uLpo6CHSuTehca8x6nNsTRsa5A0Pn2oTOtQadmx46l9iBzrUGnZseOpfYgc61Bp2bHjqX2IHOtQadmx46l/RJ0+sxyz/RROdag85ND51LEhC84R16dNVb4Fmw5iea6Fxr0LnpoXNJZ5xN4c5gcdm49WWCFxLpXGvQuemhc0lXnENLcRamXVJuTZlKKTrXGnRueuhc0hWlzSJVH/UEKSVjOtcadG566FzSlVqf6oFtg4HDZTrXGnRueuhc0pVuzg0L0rnWoHPTQ+eSrtTeq604t7bM0jKdaw06Nz10LumMEyq8WS7qkW19GSQKGdO51qBz00PnkgQ4c4JCoBXp1paplKJzrUHnpofOJX0hklXSrUOUGwiYzrUGnZseOne8vLy8vL6++uVv3759TMTR0ZFY4/LyUqz3+Pjot78Z1aFuFW1cOtcedG566NyRIk3Y3d2VyxvptzdxZSar9IiIZUciwULx0TSMdWuy6Fxr0LnpoXPHy2Kx2NnZkRGuT8qYVLrW6empT3bh4eFBlCfuEA4PD2UvzoIZ4t+rq6tip2nxtvLQuRagc9ND546X29tb6UtnZ2dIL1k4ISJ0Ue3x8bEMrp0R372TYfX19fXLywtKpIDOtQadmx46d9R4yT49PfnksoWT8/r6enNzU9zH8Pc3UpmXzrUGnZseOnfU+PsJ0qmQziwsHmx/47U14lkZ+crupALifRF99/E1nWsNOjc9dO7YqUj24uJCOtj9/b1PDoAMrgvzyt4R3Qg61xp0bnro3LHjJSvi80lpmiTDke8wiCL39/dl1/Lvw8MDoi2hc61B56Znts79wz/8QzkX2QOp4+bDB/d611//9V+jbW9vBwcHe3t7SAyIjLXPz8/9Qw6ysMH9DTrXGnRueuY8zvVPRE0A/01a4Th/zUvcJwfm6elJpC8VkFq17Vp0rjXo3PTw3sIEuLq6kk5V3F7wX6zJle+TW8Hf8djd3W2lTjrXGnRueujcCVCRrAx4JXl0dOST20Kk6R/mvby8RGgddK416Nz00LkTQCS7s7NzeHiIdPYww1Zu6VaQ4+wfaSj+HjRD51qDzk0PnTsNRG0yqETi7e34+Fi6WdqXxDZD/h7IHwOpTIx26Vxr0LnpoXOnwenpqfSr4oW04Z/SbUC0679VW6tdOtcadG566Nxp4L9GKzwltpXk9fW1T24dGXH7mwzN93bpXGvQuemhc6eB6FX6VSFZEZYk144rh0S0u7+/v7Oz0/DGBJ1rDTo3PXTuNPCSLZwrDZSkKecKT09P4lw58qtuNNO51qBz00PnToPKwNY7VzqbT9rBj8dXPcdG51qDzk0PnTsNvGQL5wqSNOhcwV8Cv/jFL6S2FX744QfJ8tC5FqBz00PnToMROdc/x/Y3f/M3mWbrGa9wBak/nWsIOtcC03PuuO4t2PxjkAo61xZ0rgWm59zKw2FPT0+SLBRshOI7tGI6nklC59qCzrXA9Jzrx4+FcyvDXgvEPCs2DehcW9C5Fpiec6fxTsQ0oHNtQedaYHrO9e/+FqfSv/tr5Juo+Hd/pwGdaws61wLTc679OW7Oz88Rmjp0ri3oXAtMzLniNelU4YsG+/v7Fhoox9nfUpBuj9AMoHNtQedaYGLOfXh4kE5VfHJfVvBWkFr5OctnckuhgM61BZ1rgYk59/LyUjpVMXOjhd/mubq62tnZEecWvxg0H+hcWxh07s3NzdeZIU3e29tDYvzI5/fvvvuueOjVX/PbeiTr6enp48ePUoH9/f1iPt9ZQefawppzz8/P/U92z4qDgwMZhSExcvwjAX/5l3+JM5rdzN3WD/NcXFzIgZX6nJ6eWvgGbyvQubaw5tx5Isd/MvcWKj8JIU3zyvPJwbi9vfVfl4nxJ//WQzN0ri3oXAtMybl+VFvcWBj+ydzr62tvWxnhysemoiazhc61BZ1rgck4V0aX0p3Ozs6QfnsT/4YK7o9v375dXV3JYfS2lTpIBHnzhs61BZ1rgck4VwaY4rtCdl7Bvb598PLyIgPbo6Mj2ZGwu7sripntrdta6Fxb0LkWmIZzlwe5FQUn5OvXr6IS/0aZIHs5Pj6+ubnhnYRl6Fxb0LkWmIBzRXb7+/syzCwMK1qUrhUqeDNkg7IpGcyKO6S7+uciPKJaGeFKFge2DdC5tqBzLTAB5z49Pe3t7YXTdBWf99MiWpcty45m/jRCPHSuLehcC0zAuYIMdYuP9jI4xfO6nZGRsljj9vZWRrscz24AnWsLOtcC03AusQmdaws61wJ0LukPOtcWdK4F6FzSH3SuLehcC9C5pD/oXFvQuRagc0l/0Lm2oHMtQOeS/qBzbUHnWoDOJf1B59qCzrUAnUv6g861BZ1rATqX9Aedaws61wJTcu7zlw/v3n348ozk29vdifSwkzufyHJBUCgrE5AXB0trLe1E74WE0Lm2oHP74PT0FC+uxvEXf/EXu7u7SLRHTmLx0q0FnBFzIToX5suZKQsvhjluuRRmuH7dWllCraLXIAo61xZ0bnLOzs7kkA6MnEfs3gS5T0OvVsQqlIFKllNonpQsZdNCr4Fnl7ZMAuhcW9C5afE/My5jzyEHnn4aWbm0kLaA06Cj9GUoUlD4VEvTpfL1atYqwFpNRQidaw06NyE3NzdyMBeLxcDTX4nf/ayyV1dXCBkgNKdDezVDQqVzA4LVatYKwHrhbkgVOtcWdG4qvn79urOz8/79+60cTLG87FpOZfGDu1smt2ipw8hxbkWyawaxLpvGbYbOtQWdm4THx8fdDFlAaHDkJO7t7Yn3DUzm7cTpVJj/XwSVPstAmFXRqGQpqa7JJkvQubagc7sjR0/GmCI7GeoitCXE+FINUf92T6gzaC7CcNnpsrRutVSpY53SktV5WZrObYbOtQWd2xH5UL9YLOQY3tzcILRV7u/vpTLyN6CPX36MwUlRaVAFMu2CQJ0Vk2algm2sWMtB566FzrUFnduF19fXjx8/ygEMfwds61xfX0uV5C+BqYd2ybagc21B53bh+PhYjl73n7ZNjr/MDg8PqV1C59qCzt0Y/+6DaBdpY/gzK/8iTeYKnWsLOncztvLuQ1ssvitBBofOtQWduwH+3Yf9/X3jP/0tfw/893um3pUgA0Pn2oLObct2331oi7l3Jcjg0Lm2oHNbYeHdh7bIyZUK23hXgmwBOtcWdG48cpT8uw+jGzMaeVeCbAU61xZ0biTW3n1oy9bflSDbgs61BZ0bQ/Huw8XFBUIj5OrqSprAdyXmBp1rCzo3BrPvPrTFX358V2JW0Lm2oHPX4t99ODo6Qnrk+DMu/yJNpg6daws6t5lRvPvQCmkI35WYFXSuLejcBvy7DxOG70rMATrXFnRuAxcXF9JfN+ZXv/rVv/zLvyDRA58+fcJSB9BUMl3kLNO5hqBz++Pjx4+9zmIuJw5LhKyGzrUFndsfdC6xAJ1rCzq3P+hcYgE61xZ0bn/QucQCdK4t6Nz+oHOJBehcW9C5/UHnEgvMyLnhj5Wqnz1Vv1Oa/Sqq+y1Tl5X/r4vkOWEiW63KBj+ASuf2B51LLDAX52bmLEQZ/pS0+llpVwymzM2arbn0S9NqjSIhdPytaTq3P+hcYoGZOLdqwsCt4XLo31ymWfaHcKyrNKsSAp1rFjqXWGAezq2KsQJUq0vlKfe/WNSVgUxVueqm6Vyz0LnEAvNwbjh+rcUVEEJbVpzry2QLdO44oXOJBTjO9RRmLcjXCXJgXbW16qbpXLPQucQCvJ8LllxZ41xY9+SEzh0jdC6xwEycW5GsU2coSiHOuX5Vgc4dH7069/X1dWdnBwlCVjMX5wrOjjkV4QqxzoV16dzx0atz5ZS9f/8eCUJWMyPnjgI6tz/oXGIBOtcWdG5/0LnEAnSuLejc/qBziQXoXFvQuf1B5xIL0Lm2oHP7g84lFqBzbUHn9gedSyxA526OXMDJOTw8lPNxc3ODNEnHYrGQf3HyUkPnkkjo3A2Rq1fGTcnZ29uT83FwcIA0SUp/HZ3OJZHQubbgvYWRQueSSOhcW9C5I4XOJZHQubagc0cKnUsioXNtQeeOFDqXRELn2oLOHSkPDw8HBwdIELIaOtcWdO5I8c+xIEHIauhcW9C5I4XOJZHQubagc0fK7J3bceLoGUHn2oLOHSlzcm42az8o5uvPnbs0x/8GhD8v0I/IXROWf7igBR2aSefags4dKbNxrpZN6a5k49xMuKHKu8mxnp42GwWdaws6d6TMxrkVtzpDZvIq4mEBpzZPsE4ZrLNeZfuB4zMZe8oVXXH3o7AuFi5neyk2pD0uuNyavdfuQnDFM8ofoHU7C+pZlNC1r4POtQWdO1Lmc29ByaykcFCxUNrSr5SpKgiG+QUuWCPDYLPBxrAcxoMNlmss7yncRE5YqrqcFy6Xy63r0nVb1tC5tqBzR8q8vkNzYsko7VI4KF9wIlLyeX5+1kZaKiGsUpZbOaeiuEJ94bKjSFczandTqU2xTri3oFSwzaV2hJVdhs61BZ07Uubl3BynLuimcFC+EEipJFshpFpkyV8FLqckXy/cy9IeEaipiatHZTeVUkVFdI2KVFC8ZvtN0Lm2oHNHylycW/XLsoPyBe0qsF5PdTuQgISLrSGULYfFlzeeRb7U7DPcHKjUt9hYuLegVLCzyprroHNtQeeOlDl9h1ZRkE8VDqqVVbGWWv3upFgs0Y5z5Z3P8v/zWLDhYHPBih5XNKxvTri5HLfjPBhWohr3y+HOwtJuy8v7C6FzbUHnjpQ53VvIxJMTiNCrJpSRE5AnEFwZfHfypfbOZ7iDYsVgWyelMSt7W7KdW6tGgUEdPH5zwY6DCgfFI55bUCvWQefags4dKfO8n2sfceFaCbbBubXjBulcW9C5I+X6+lrOHRLECkmUW26kvLXQATrXFnTuSKFzreHvEyQY5D4/Z9/geWruU7SFzrUFnTtS6FwSCZ1rCzp3pNC5JBI61xZ07kihc0kkdK4t6NyRQueSSOhcW9C5I4XOJZHQubagc0cKnUsioXNtQeeOFDqXRELn2oLOHSl0LomEzrUFnTtS6FwSCZ1rC+9cQsi0oXOtcHFx8ZGMkP39/b29PSQIWce3b99wzY+ZKTiXjJTLy8uzszMkCJkHdC7ZGv+agQQh84DOJVuDziUzhM4lW4POJTOEziVbg84lM4TOJVuDziUzhM4lW4POJTOEziVbg84lM4TOJVuDziUzhM4lW4POJTOEziVbg84lM4TOJVuDziUzhM4lW4POJTOEziVbg84lM4TOJVvj9PT06uoKCULmAZ1LtsYvf/nL6+trJAiZB3Qu2Rp0LpkhdC7ZGnQumSF0LtkadC6ZIXQu2Rp0LpkhdC7ZGnQumSF0LtkadC6ZIXQu2Rp0LpkhdC7ZGnQumSF0LtkadC6ZIXQu2Rp0LpkhdC7ZGnQumSF0LtkadC6ZIXQu2RpPT0+vr69IEDIP6FxCCBkOOpcQQoaDziWEkOGgcwkhZDjoXEIIGQ46lxBChoPOJYSQ4aBzCSFkOOhcsgWev3x4l/PhyzOiWfjkDglCJgmdS4YmE26h1ruTMkHnkulD55KBEckGQ1svWgToXDJ96FwyLE1epXPJ9KFzybCE9xKq0Llk+tC5ZFg4ziXzhs4lA8P7uWTW0LlkaALJCnxugcwLOpdsASfXnECydC6ZPnQuIYQ45DMX/uTLX//yo9jzl5NgORstZMX8clFOJd3HN1BuyEPnEkKI5+7EGVLsmX/c8u4stHl3AtuefLmDif0qWcglQ0ELlaSDziWEkJxMsvoGV+nNYknce+JdK7FC0IJO5Y5W0LmEEJLj7hBU7gbUO/fO30twwKsIlJatGeQKdC4hhHj8MBW3C3JWODeLFIv5OsFAt7KZHDqXEEKEYIh7Fz5EHg5X8d1YlunHtaVhs5wiIOnCywo6lxBChoPOJYSQ4aBzCSFkOOhcQggZDjqXEEKGg84lhJDhoHMJIWQo3t7+P8jaLR5S4uUaAAAAAElFTkSuQmCC;" parent="1" vertex="1">
                    <mxGeometry x="130" y="70" width="465" height="729" as="geometry"/>
                </mxCell>
            </root>
        </mxGraphModel>
    </diagram>
</mxfile>